<svg xmlns="http://www.w3.org/2000/svg" width="1024" height="1024" viewBox="0 0 1024 1024"><path fill="#312059" d="M273.516 249.918c.342-1.831 1.593-2.752 2.92-3.959 65.648-59.7 152.304-91.973 240.949-90.681 58.004.846 119.09 15.977 169.339 45.333 5.043 2.946 23.527 12.91 26.92 16.524l.604-.445c4.161-3.126 8.048-8.114 12.887-11.686 53.446-39.442 131.326-.922 123.463 67.685-2.137 18.651-11.73 32.771-25.73 45.048-1.773 1.311-4.326 3.09-5.988 4.439-2.294 1.366-6.533 3.674-8.265 5.445 1.59 5.88 15.306 30.716 18.875 38.8 14.37 32.547 21.21 60.152 27.066 94.804q.252 2.849.701 5.673l1.398 11.331c-.446 3.937 1.344 16.635 1.398 21.674-.256 25.069-.931 45.928-5.448 71.403-17.716 99.919-80.221 182.526-167.906 232.178-2.731 1.546-7.394 3.597-9.664 5.29-2.764 1.312-10.979 5.028-13.163 6.505-1.891.792-4.537 2.003-6.402 2.662l-.424.226c-3.588 1.685-11.724 5.149-15.43 6.037-1.236 1.432-2.266 2.883-3.939 3.731-1.312 1.652-3.093 5.027-4.024 6.993-.221.25-.834.908-.983 1.16-2.95 5.053-4.77 9.998-10.696 12.05-12.459 4.316-31.313 10.248-42.807.686-9.173 1.091-20.473 1.208-29.895 1.701-34.291 1.794-68.539.549-102.844-.23-2.564 8.428-24.291 4.245-30.902 2.919-13.797-2.769-16.487-5.038-23.769-16.309-.922-1.534-2.799-5.761-3.987-7.916l-2.579-1.324-.214-.653c-1.722-1.728-7.59-4.244-9.977-5.346l-.406-.057-.846-.651-4.614-1.782A695 695 0 0 1 357 813.772c-2.186-1.215-5.485-2.623-7.922-3.894l-3.128-1.679-1.362-.504-3.059-1.849-4.567-2.526a470 470 0 0 1-15.425-9.404l-4.018-2.758c-3.912-2.975-7.321-5.386-11.373-8.135l-1.457-1.05-3.744-2.75c-2.271-1.903-4.63-3.628-6.999-5.405-20.665-16.315-35.038-31.227-52.227-51.398a464 464 0 0 1-16.304-21.681c-5.985-9.6-12.177-18.133-17.897-28.163a326.4 326.4 0 0 1-37.931-108.938 347.3 347.3 0 0 1 29.301-206.202c6.241-13.2 17.899-33.644 25.884-46.096 6.673-10.404 18.705-24.294 26.459-35.182-3.8-4.255-7.093-8.215-9.79-13.279a45.55 45.55 0 0 1-3.188-34.744c4.758-15.369 15.638-26.041 29.517-33.473-4.976 12.453-16.94 23.076-10.285 38.484 2.295 5.313 10.067 15.374 15.498 17.443zm-5.746-55.256c-13.879 7.432-24.759 18.104-29.517 33.473a45.55 45.55 0 0 0 3.188 34.744c2.697 5.064 5.99 9.024 9.79 13.279-7.754 10.888-19.786 24.778-26.459 35.182-7.985 12.452-19.643 32.896-25.884 46.096a347.3 347.3 0 0 0-29.301 206.202 326.4 326.4 0 0 0 37.931 108.938c5.72 10.03 11.912 18.563 17.897 28.163a464 464 0 0 0 16.304 21.681c17.189 20.171 31.562 35.083 52.227 51.398 2.369 1.777 4.728 3.502 6.999 5.405l3.744 2.75 1.457 1.05c4.052 2.749 7.461 5.16 11.373 8.135l4.018 2.758a470 470 0 0 0 15.425 9.404l4.567 2.526 3.059 1.849 1.362.504 3.128 1.679c2.437 1.271 5.736 2.679 7.922 3.894a695 695 0 0 0 12.134 5.404l4.614 1.782.846.651.406.057c2.387 1.102 8.255 3.618 9.977 5.346l.214.653 2.579 1.324c-2.801-5.645-6.545-12.354-8.954-17.966-8.626-20.093-13.469-40.265-19.513-61.057-34.37-11.95-51.586-31.384-53.709-68.19q-.886-.62-1.763-1.251c-16.359-11.797-27.159-27.309-30.215-47.443-3.021-19.912 2.201-42.243 14.037-58.551-16.063-34.113-9.958-59.97 14.311-87.998.47-11.256.203-14.767 4.182-25.31-17.944 8.798-36.537 19.527-57.286 12.934-16.992-5.399-23.074-21.818-16.975-37.796 6.404-16.779 26.415-27.394 41.443-35.65a393 393 0 0 1 25.308-12.954c.186-19.117 5.239-33.835 23.283-42.305.034-15.961 2.179-29.017 12.888-41.763a52 52 0 0 1 35.41-18.35c6.247-19.67 20.536-33.407 40.179-39.754 9.605-3.103 16.418-2.974 26.27-2.528 20.719-19.882 48.925-26.022 74.984-12.585 7.928-4.595 20.51-7.335 29.613-7.114 20.835.507 32.743 7.358 46.833 21.46 7.796-1.012 13.563-1.792 21.281-.022 21.499 4.929 35.498 19.679 41.983 40.093 32.167 5.496 51.187 31.096 49.864 63.323 11.992 8.09 20.085 20.951 19.903 35.66l2.076.861c23.306 9.782 60.841 29.064 70.229 53.063 10.994 28.102-17.794 41.772-41.181 37.826-13.981-2.359-19.844-4.789-32.563-10.656 1.672 6.618 1.79 13.793 2.146 20.621 13.101 12.62 21.168 24.397 23.09 42.863 1.749 16.809-.789 29.834-8.26 44.775 7.405 10.79 11.481 19.351 13.284 32.52 23.054 1.378 27.787 26.545 24.489 44.977-3.925 21.941-19.445 41.308-40.693 48.708-6.004 2.091-11.464 2.533-17.658 3.031a76 76 0 0 1-10.026 21.105c-10.003 14.391-25.373 22.9-42.374 26.049-3.078 27.211-14.581 53.831-26.009 78.32 1.673-.848 2.703-2.299 3.939-3.731 3.706-.888 11.842-4.352 15.43-6.037l.424-.226c1.865-.659 4.511-1.87 6.402-2.662 2.184-1.477 10.399-5.193 13.163-6.505 2.27-1.693 6.933-3.744 9.664-5.29 87.685-49.652 150.19-132.259 167.906-232.178 4.517-25.475 5.192-46.334 5.448-71.403-.054-5.039-1.844-17.737-1.398-21.674l-1.398-11.331a83 83 0 0 1-.701-5.673c-5.856-34.652-12.696-62.257-27.066-94.804-3.569-8.084-17.285-32.92-18.875-38.8 1.732-1.771 5.971-4.079 8.265-5.445 1.662-1.349 4.215-3.128 5.988-4.439 14-12.277 23.593-26.397 25.73-45.048 7.863-68.607-70.017-107.127-123.463-67.685-4.839 3.572-8.726 8.56-12.887 11.686l-.604.445c-3.393-3.614-21.877-13.578-26.92-16.524-50.249-29.356-111.335-44.487-169.339-45.333-88.645-1.292-175.301 30.981-240.949 90.681-1.327 1.207-2.578 2.128-2.92 3.959l-.533.671c-5.431-2.069-13.203-12.13-15.498-17.443-6.655-15.408 5.309-26.031 10.285-38.484m305.215 50.262c-1.83-.203-4.223-1.43-5.244-.775-1.016 5.083 9.418 9.319 13.278 10.963 1.421-.081 1.366-.18 2.609-.939-3.136-2.913-7.222-6.944-10.643-9.249m-11.958-6.899c-13.731-5.008-25.607-5.911-39.476-.843-1.92 3.377-4.375 3.059-5.675 5.237l.205.955c.567.299.996.51 1.572.774 6.019 2.757 2.188 5.15 9.294 7.306 9.199-3.083 23.865-3.712 30.363 4.85l.317-.723 2.123-.727.4-1.039c-1.433-3.012-5.484-2.895-6.842-4.472-.906-1.676-3.718-4.66-5.41-5.58-1.561-.848-3.2 1.584-3.829 1.72-3.049.659-14.205.375-16.35 1.635-.488.448-.885.671-1.437 1.042l-.595-.491.302-1.218c2.674-2.313 4.181-.428 5.962-3.147-.905-3.142-6.135-3.612-8.027-5.538l.338-.589c4.089 1.907 15.655-2.482 21.256-1.799.948.116 1.903.268 2.848.409l-.006 1.944c1.042 1.541.347.992 2.265 1.559 1.862-.527 4.114-1.639 5.478.011-1.15 1.374-2.227 2.158-1.87 3.969 2.844-.064 4.08-2.781 6.262-4.768zM315.102 371.713c-1.708 1.023-3.888 4.362-3.924 6.299 1.31.508 2.24.138 3.806-.417 1.493-1.05 5.493-3.397 6.03-4.592-1.88-1.281-3.715-.768-5.912-1.29m311.003-107.202-2.511.479c.461 1.029 3.844 3.68 5.074 5.406 2.216 3.11 4.065 3.973 5.538 7.911.873-.807.38-1.598 1.027-3.196-1.658-3.647-6.242-7.964-9.128-10.6"/><path fill="#fada9f" d="M273.516 249.918c.342-1.831 1.593-2.752 2.92-3.959 65.648-59.7 152.304-91.973 240.949-90.681 58.004.846 119.09 15.977 169.339 45.333 5.043 2.946 23.527 12.91 26.92 16.524l.604-.445c4.161-3.126 8.048-8.114 12.887-11.686 53.446-39.442 131.326-.922 123.463 67.685-2.137 18.651-11.73 32.771-25.73 45.048-1.773 1.311-4.326 3.09-5.988 4.439-2.294 1.366-6.533 3.674-8.265 5.445 1.59 5.88 15.306 30.716 18.875 38.8 14.37 32.547 21.21 60.152 27.066 94.804q.252 2.849.701 5.673l1.398 11.331c-.446 3.937 1.344 16.635 1.398 21.674-.256 25.069-.931 45.928-5.448 71.403-17.716 99.919-80.221 182.526-167.906 232.178-2.731 1.546-7.394 3.597-9.664 5.29-2.764 1.312-10.979 5.028-13.163 6.505-1.891.792-4.537 2.003-6.402 2.662l-.424.226c-3.588 1.685-11.724 5.149-15.43 6.037-1.236 1.432-2.266 2.883-3.939 3.731 11.428-24.489 22.931-51.109 26.009-78.32 17.001-3.149 32.371-11.658 42.374-26.049a76 76 0 0 0 10.026-21.105c6.194-.498 11.654-.94 17.658-3.031 21.248-7.4 36.768-26.767 40.693-48.708 3.298-18.432-1.435-43.599-24.489-44.977-1.803-13.169-5.879-21.73-13.284-32.52 7.471-14.941 10.009-27.966 8.26-44.775-1.922-18.466-9.989-30.243-23.09-42.863-.356-6.828-.474-14.003-2.146-20.621 12.719 5.867 18.582 8.297 32.563 10.656 23.387 3.946 52.175-9.724 41.181-37.826-9.388-23.999-46.923-43.281-70.229-53.063l-2.076-.861c.182-14.709-7.911-27.57-19.903-35.66 1.323-32.227-17.697-57.827-49.864-63.323-6.485-20.414-20.484-35.164-41.983-40.093-7.718-1.77-13.485-.99-21.281.022-14.09-14.102-25.998-20.953-46.833-21.46-9.103-.221-21.685 2.519-29.613 7.114-26.059-13.437-54.265-7.297-74.984 12.585-9.852-.446-16.665-.575-26.27 2.528-19.643 6.347-33.932 20.084-40.179 39.754a52 52 0 0 0-35.41 18.35c-10.709 12.746-12.854 25.802-12.888 41.763-18.044 8.47-23.097 23.188-23.283 42.305a393 393 0 0 0-25.308 12.954c-15.028 8.256-35.039 18.871-41.443 35.65-6.099 15.978-.017 32.397 16.975 37.796 20.749 6.593 39.342-4.136 57.286-12.934-3.979 10.543-3.712 14.054-4.182 25.31-24.269 28.028-30.374 53.885-14.311 87.998-11.836 16.308-17.058 38.639-14.037 58.551 3.056 20.134 13.856 35.646 30.215 47.443q.877.632 1.763 1.251c2.123 36.806 19.339 56.24 53.709 68.19 6.044 20.792 10.887 40.964 19.513 61.057 2.409 5.612 6.153 12.321 8.954 17.966l-2.579-1.324-.214-.653c-1.722-1.728-7.59-4.244-9.977-5.346l-.406-.057-.846-.651-4.614-1.782A695 695 0 0 1 357 813.772c-2.186-1.215-5.485-2.623-7.922-3.894l-3.128-1.679-1.362-.504-3.059-1.849-4.567-2.526a470 470 0 0 1-15.425-9.404l-4.018-2.758c-3.912-2.975-7.321-5.386-11.373-8.135l-1.457-1.05-3.744-2.75c-2.271-1.903-4.63-3.628-6.999-5.405-20.665-16.315-35.038-31.227-52.227-51.398a464 464 0 0 1-16.304-21.681c-5.985-9.6-12.177-18.133-17.897-28.163a326.4 326.4 0 0 1-37.931-108.938 347.3 347.3 0 0 1 29.301-206.202c6.241-13.2 17.899-33.644 25.884-46.096 6.673-10.404 18.705-24.294 26.459-35.182-3.8-4.255-7.093-8.215-9.79-13.279a45.55 45.55 0 0 1-3.188-34.744c4.758-15.369 15.638-26.041 29.517-33.473-4.976 12.453-16.94 23.076-10.285 38.484 2.295 5.313 10.067 15.374 15.498 17.443zm444.314 62.204c-5.914 38.791 1.479 34.092 30.8 18.993 18.59 4.049 34.087 6.294 52.411-.27 1.777-.637 8.284-3.424 9.372-3.547l.202.323c1.732-1.771 5.971-4.079 8.265-5.445 1.662-1.349 4.215-3.128 5.988-4.439 14-12.277 23.593-26.397 25.73-45.048 7.863-68.607-70.017-107.127-123.463-67.685-4.839 3.572-8.726 8.56-12.887 11.686l-.604.445c-1.843 4.454-6.47 10.098-8.886 15.015a69.07 69.07 0 0 0-2.859 55.131c3.743 9.865 8.845 17.115 15.931 24.841M599.351 203.685c-4.367-.203-5.759-.429-7.845 3.832.249 7.181 5.457 5.819 9.773 6.968 4.028 1.072 8.549 3.94 13.342 5.412 4.688 2.175 13.193 6.359 17.197.811 2.453-8.099-12.801-11.875-18.283-13.537-4.327-1.915-9.51-2.944-14.184-3.486M200.837 517.167q.106 4.614.373 9.222c.357 2.586.351 3.279 1.347 5.624 2.744.916 5.749 2.79 8.322 4.237-.422-6.879 1.755-17.239.046-22.329-4.114-7.766-10.092-5.318-10.088 3.246m233.452-321.675c-16.283 2.027-45.384 15.515-59.419 23.902-1.895 1.133-8.761 4.979-10.086 6.414-4.798 3.181-8.849 6.621-13.215 9.567l-.743.813-2.974 2.619-2.82 3.037c-.848 2.119-1.096 3.142-.085 5.356l.077.448 1.911.086c3.696-1.359 4.225-.97 8.09-.376 4.485-3.332 8.258-6.862 13.034-10.172 13.832-9.585 27.876-16.517 43.339-22.897 3.608-1.527 8.729-3.189 12.513-4.545l8.561-2.418c5.017-1.165 12.512-2.166 11.295-8.98l-.292 2.297c-1.204-5.287-4.287-6.574-9.186-5.151m221.688 44.873c.876.494 4.314 2.295 5.12 2.007 8.352-2.986 5.078-10.29-.816-13.746-4.926-2.889-10.095-6.163-15.91-5.842-3.206.199-4.854 3.451-3.989 6.278 1.232 4.031 7.482 6.391 11.016 8.161 1.563 1.123 2.946 2.127 4.579 3.142M215.57 473.352c-2.265-2.628-2.623-3.392-6.123-3.942-3.154 2.606-3.573 3.28-5.042 7.109-.645 6.798-4.953 27.995 10.26 18.593.952-.588 1.383-2.422 1.631-3.484-3.289-3.504-1.355-13.737-.726-18.276"/><path fill="#312059" d="m713.644 217.135.604-.445c4.161-3.126 8.048-8.114 12.887-11.686 53.446-39.442 131.326-.922 123.463 67.685-2.137 18.651-11.73 32.771-25.73 45.048-1.773 1.311-4.326 3.09-5.988 4.439-2.294 1.366-6.533 3.674-8.265 5.445l-.202-.323c-1.088.123-7.595 2.91-9.372 3.547-18.324 6.564-33.821 4.319-52.411.27-29.321 15.099-36.714 19.798-30.8-18.993-7.086-7.726-12.188-14.976-15.931-24.841a69.07 69.07 0 0 1 2.859-55.131c2.416-4.917 7.043-10.561 8.886-15.015m34.395 46.292c-.756 6.089-1.364 6.919-5.21 11.948-2.672.898-4.534 1.629-7.345 2.043-3.205.097-4.178.111-7.403-.374-2.494-.739-3.135-1.47-5.181-3.099-6.782-8.492-5.059-21.681 6.322-24.726a14.98 14.98 0 0 1 11.86 1.827c4.984 3.175 5.937 7.143 6.957 12.381m31.587 13.821a14.606 14.606 0 0 1-19.384-15.203 14.61 14.61 0 0 1 13.842-13.166 14.607 14.607 0 0 1 5.542 28.369m-66.902 8.52.435 1.156c2.708 7.918 9.873 17.03 16.119 22.648a139.6 139.6 0 0 0-3.082 21.945c5.781-2.898 18.586-11.837 24.778-11.482.308.018 2.795 1.051 3.297 1.265 14.552 5.291 30.988 3.389 45.385-1.191l1.059-.575c2.399-.961 3.851-1.492 6.092-2.863l.808-.396c1.953-.729 3.403-1.719 5.18-2.798a61.35 61.35 0 0 0 22.226-25.324c15.295-31.692.362-67.074-30.69-81.894a69.18 69.18 0 0 0-53.424-2.72c-23.978 8.513-43.167 32.791-42.682 58.689.181 9.654 1.211 14.454 4.499 23.54"/><path fill="#9f80c3" d="M813.801 248.829c7.98-1.205 15.426 4.287 16.633 12.267s-4.282 15.427-12.262 16.637c-7.983 1.21-15.434-4.283-16.642-12.266-1.207-7.983 4.287-15.434 12.271-16.638"/><path fill="#fefefa" fill-opacity=".569" d="m735.484 277.418 2.767.431c1.135.978 1.231.838 2.063 2.042-.54 5.352-4.236 2.6-7.489 4.301l.039.434c3.657 1.161 10.699-2.795 13.474-5.188.517-1.959-1.312-2.42-1.589-5.309 1.136 1.613.447 1.281 1.915 1.795 1.179-.98 1.726-1.608 2.736-2.723 1.809.186 1.576.508 3.276 2.036 1.605.095.883.285 2.235-.603.207-1.498.181-1.713.731-3.095 1.664-.53 2.907-1.075 4.638-1.535l-.898 1.188c-.536 5.057-2.234 2.908-3.144 4.999 2.361 1.758 3.332 2.52 6.321 2.011 1.546-.263 2.3 1.951 4.737 2.13l.731-1.023c.03-.934.101-1.83.271-2.75a14.6 14.6 0 0 0 11.328.689c1.291.295 1.452.265 2.495 1.227 2.039 1.881 6.475 1.793 9.11 1.729 3.421-.359 6.013-1.573 9.887-1.537 1.577 2.371-.116 2.224 1.71 4.163l1.09-.247c1.993 4.264 1.077 11.373 3.27 12.578l1.218-.062c1.123 3.448-1.788 3.899-.082 6.27 1.224 1.701 3.124 2.927 4.318 4.652l.533.216-1.232 1.135-.564-.345-.123.31c-2.806.32-.949-1.391-5.612-.97l-.952.759-.036.413-.738.137c1.474.653.955.123 1.8 1.365l-.198.461-3.33-1.272c-2.626.735-5.64 1.754-8.409 2.049-.87.093-.87.292-1.44.687l-.369-.745c-.941 1.126-1.989 1.541-3.253 2.281l.094.672 2.664 1.486c-2.636.4-4.615 1.222-7.097 2.139-14.007 1.674-19.142-1.098-31.502.056-.973 2.067.046 2.562 1.393 4.445-.502-.214-2.989-1.247-3.297-1.265-6.192-.355-18.997 8.584-24.778 11.482a139.6 139.6 0 0 1 3.082-21.945c-6.246-5.618-13.411-14.73-16.119-22.648 3.701 2.226 4.383 7.286 8.593 11.009-2.593-6.584-3.068-8.589 3.298-12.754 1.943-1.271 2.116-5.513 1.86-7.743l1.171-.392c3.225.485 4.198.471 7.403.374"/><path fill="#9f80c3" d="M722.9 273.945c-6.782-8.492-5.059-21.681 6.322-24.726a14.98 14.98 0 0 1 11.86 1.827c4.984 3.175 5.937 7.143 6.957 12.381-.756 6.089-1.364 6.919-5.21 11.948-2.672.898-4.534 1.629-7.345 2.043-3.205.097-4.178.111-7.403-.374-2.494-.739-3.135-1.47-5.181-3.099"/><path fill="#9f80c3" d="M760.242 262.045a14.61 14.61 0 0 1 13.842-13.166 14.607 14.607 0 1 1-13.842 13.166"/><path fill="#fada9f" fill-opacity=".592" d="M784.38 316.799c4.87 1.655 6.627-1.389 9.751-1.025-.734 1.932-.951 1.565-.502 3.162 1.782.411 4.26 1.082 6.027 1.173-14.397 4.58-30.833 6.482-45.385 1.191-1.347-1.883-2.366-2.378-1.393-4.445 12.36-1.154 17.495 1.618 31.502-.056"/><path fill="#fefefa" fill-opacity=".529" d="M760.242 262.045a14.61 14.61 0 0 0 8.056 14.514c-.17.92-.241 1.816-.271 2.75l-.731 1.023c-2.437-.179-3.191-2.393-4.737-2.13-2.989.509-3.96-.253-6.321-2.011.91-2.091 2.608.058 3.144-4.999l.898-1.188c-1.731.46-2.974 1.005-4.638 1.535-.55 1.382-.524 1.597-.731 3.095-1.352.888-.63.698-2.235.603-1.7-1.528-1.467-1.85-3.276-2.036-1.01 1.115-1.557 1.743-2.736 2.723-1.468-.514-.779-.182-1.915-1.795.277 2.889 2.106 3.35 1.589 5.309-2.775 2.393-9.817 6.349-13.474 5.188l-.039-.434c3.253-1.701 6.949 1.051 7.489-4.301-.832-1.204-.928-1.064-2.063-2.042l-2.767-.431c2.811-.414 4.673-1.145 7.345-2.043 3.846-5.029 4.454-5.859 5.21-11.948 3.269 2.601 8.244 4.053 12.041 1.852-.23-1.095-.198-1.229-.01-2.3z"/><path fill="#fefefc" fill-opacity=".322" d="M722.9 273.945c2.046 1.629 2.687 2.36 5.181 3.099l-1.171.392c.256 2.23.083 6.472-1.86 7.743-6.366 4.165-5.891 6.17-3.298 12.754-4.21-3.723-4.892-8.783-8.593-11.009l-.435-1.156c6.536-2.133-.036-13.164 10.176-11.823"/><path fill="#fefefc" fill-opacity=".114" d="M803.918 282.583c3.907 1.934 7.215 8.318 7.966 12.467l.579.269.788-.575c-.344 2.089-1.108 4.8-.301 6.614 1.56.37.737.384 2.51-.569 2.259-.634 1.884-.932 3.559-.21l-.377.711c-3.865 7.167-6.128 3.141-5.847 12.187-1.777 1.079-3.227 2.069-5.18 2.798l.205-1.548c3.386-3.334 1.922-4.352 4.123-7.355l1.232-1.135-.533-.216c-1.194-1.725-3.094-2.951-4.318-4.652-1.706-2.371 1.205-2.822.082-6.27l-1.218.062c-2.193-1.205-1.277-8.314-3.27-12.578"/><path fill="#fefefa" fill-opacity=".373" d="M792.341 310.966c.57-.395.57-.594 1.44-.687 2.769-.295 5.783-1.314 8.409-2.049l3.33 1.272.198-.461c-.845-1.242-.326-.712-1.8-1.365l.738-.137.036-.413.952-.759c1.426.758 1.731.727 2.418 2.175-.615 2.4-2.494 2.649-4.715 3.408-2.03.848-4.875 1.799-5.896 3.695.667 2.218 1.44 2.189 2.218 4.031-2.051-.546-2.155-.551-3.824-1.8-.784-1.907.29-2.054.266-5.104-1.397-1.462-1.521-1.118-3.77-1.806"/><path fill="#fefefa" fill-opacity=".455" d="M784.38 316.799c2.482-.917 4.461-1.739 7.097-2.139l-2.664-1.486-.094-.672c1.264-.74 2.312-1.155 3.253-2.281l.369.745c2.249.688 2.373.344 3.77 1.806.024 3.05-1.05 3.197-.266 5.104 1.669 1.249 1.773 1.254 3.824 1.8l1.046-.142-1.059.575c-1.767-.091-4.245-.762-6.027-1.173-.449-1.597-.232-1.23.502-3.162-3.124-.364-4.881 2.68-9.751 1.025"/><path fill="#fada9f" fill-opacity=".337" d="M799.669 319.676c-.778-1.842-1.551-1.813-2.218-4.031 1.021-1.896 3.866-2.847 5.896-3.695 1.912 1.96 2.438 2.276 3.46 4.721-2.241 1.371-3.693 1.902-6.092 2.863z"/><path fill="#fada9f" fill-opacity=".141" d="M805.644 306.367c4.663-.421 2.806 1.29 5.612.97l.123-.31.564.345c-2.201 3.003-.737 4.021-4.123 7.355l-.205 1.548-.808.396c-1.022-2.445-1.548-2.761-3.46-4.721 2.221-.759 4.1-1.008 4.715-3.408-.687-1.448-.992-1.417-2.418-2.175"/><path fill="#fefefa" fill-opacity=".047" d="M815.46 300.789c1.069-2.03 3.847-3.456 6.09-3.512l.198.679c-1.119 1.319-1.435 1.546-2.729 2.623-1.675-.722-1.3-.424-3.559.21"/><path fill="#9f80c3" d="M251.231 276.158c-3.8-4.255-7.093-8.215-9.79-13.279a45.55 45.55 0 0 1-3.188-34.744c4.758-15.369 15.638-26.041 29.517-33.473-4.976 12.453-16.94 23.076-10.285 38.484 2.295 5.313 10.067 15.374 15.498 17.443l.533-.671c.255 2.999 7.337 9.578 9.569 12.692 10.868 15.165 9.95 36.484.267 52.019-14.441 22.523-31.399 26.804-27.618 56.691-7.284-5.43-11.831-10.774-13.43-20.551-3.982-24.352 24.678-38.791 19.265-60.509-1.01-4.05-7.442-11.017-10.338-14.102"/><path fill="#fefefc" d="M810.296 502.429c9.108-.167 10.598 9.455 12.719 16.372 5.202 16.972.906 29.739-10.399 42.826-3.556 4.116-6.936 10.952-8.134 16.34-2.378 10.573 2.315 14.229 4.978 22.974.388 1.272-2.449 3.816-3.626 4.838-7.964 1.022-12.141-7.889-14.202-14.272-3.899-12.075.821-24.145 8.187-33.775 4.679-6.117 9.972-13.096 11.554-20.791 1.868-8.997-3.289-18.482-3.749-27.416-.205-3.982.151-4.432 2.672-7.096"/><defs><linearGradient id="a" x1="395.2" x2="400.099" y1="209.099" y2="221.078" gradientUnits="userSpaceOnUse"><stop offset="0" stop-color="#fcfbfa" stop-opacity=".804"/><stop offset="1" stop-color="#fefdfd" stop-opacity=".875"/></linearGradient></defs><path fill="url(#a)" d="M364.784 225.808c1.325-1.435 8.191-5.281 10.086-6.414 14.035-8.387 43.136-21.875 59.419-23.902.179 1.868-.336 3.015.817 4.264.963.132 2.088.317 3.039.404l-.382.206c-1.148.632-2.296 1.347-3.298 2.179-6.84 5.689-10.232-2.416-13.396 7.037-3.822 2.902-8.764-1.788-9.671 4.707-15.463 6.38-29.507 13.312-43.339 22.897-4.776 3.31-8.549 6.84-13.034 10.172-3.865-.594-4.394-.983-8.09.376l1.42-1.702c1.691-.331 3.37.02 5.167.009 5.635-3.184 2.797-7.657 8.479-8.299-.204.023 5.13-7.487 6.533-8.995l-.602-.153c-1.565.944-1.953 1.388-3.239 2.621-1.534-2.382-1.078-3.041.091-5.407"/><path fill="#fefefc" d="M233.066 548.357q.598.158 1.189.343c6.259 1.998 13.987 20.199 17.522 26.076 3.098 5.15 6.745 14.058-.495 17.379-6.741-.959-14.41-16.424-17.031-22.099-3.008-6.511-8.903-16.623-1.185-21.699"/><path fill="#fefefc" d="M223.927 596.926c5.755-.154 8.979 3.571 11.591 8.697 3.441 6.754 9.383 16.924 8.607 24.738-.132 1.327-2.052 2.094-3.108 2.652-6.676.182-10.48-9.489-13.856-14.428-3.057-4.472-6.116-11.553-6.214-16.924-.041-2.236 1.41-3.378 2.98-4.735"/><path fill="#fefefc" d="M785.062 516.923c9.584-.367 8.637 10.902 7.492 17.404-1.292 7.335-5.214 14.758-11.427 19.027-3.554.46-8.038-.912-7.233-5.285 1.33-7.219 5.995-11.523 6.313-19.291.207-5.065.824-8.638 4.855-11.855"/><path fill="#fefefc" fill-opacity=".012" d="M651.398 237.223c-3.534-1.77-9.784-4.13-11.016-8.161-.865-2.827.783-6.079 3.989-6.278 5.815-.321 10.984 2.953 15.91 5.842 5.894 3.456 9.168 10.76.816 13.746-.806.288-4.244-1.513-5.12-2.007.753-3.271 1.043-4.329-.096-7.432-2.983-1.216-.586.732-2.408.611-1.523-.101.15-1.083-2.309-.165-.545 1.833-.357 2.061.234 3.844"/><path fill="#fefefc" fill-opacity=".949" d="M209.447 469.41c3.5.55 3.858 1.314 6.123 3.942-.629 4.539-2.563 14.772.726 18.276-.248 1.062-.679 2.896-1.631 3.484-15.213 9.402-10.905-11.795-10.26-18.593 2.76 1.937 6.456 1.819 8.847-.631 1.171-3.646-.924-4.699-3.805-6.478"/><path fill="#fefefc" fill-opacity=".275" d="M599.351 203.685c4.674.542 9.857 1.571 14.184 3.486-.817 5.544 3.558 8.591 1.104 12.621l-.018.105c-4.793-1.472-9.314-4.34-13.342-5.412-4.316-1.149-9.524.213-9.773-6.968l.551.868c2.714.83 3.907-.133 5.416-2.592 1.218-1.982.904-.111 1.878-2.108"/><path fill="#fefefc" fill-opacity=".008" d="M613.535 207.171c5.482 1.662 20.736 5.438 18.283 13.537-4.004 5.548-12.509 1.364-17.197-.811l.018-.105c2.454-4.03-1.921-7.077-1.104-12.621"/><path fill="#fefefa" fill-opacity=".718" d="M210.925 513.921c1.709 5.09-.468 15.45-.046 22.329-2.573-1.447-5.578-3.321-8.322-4.237.919-2.076 1.092-5.112-.748-6.726l-.599 1.102a265 265 0 0 1-.373-9.222 94 94 0 0 0 3.645-.134c3.331-.21 4.339-.7 6.443-3.112"/><path fill="#fefefc" fill-opacity=".961" d="m443.475 200.643.292-2.297c1.217 6.814-6.278 7.815-11.295 8.98-3.029-1.763-7.923-1.967-8.561 2.418-3.784 1.356-8.905 3.018-12.513 4.545.907-6.495 5.849-1.805 9.671-4.707 3.164-9.453 6.556-1.348 13.396-7.037 1.002-.832 2.15-1.547 3.298-2.179l.382-.206c2.431.937 2.993 1.467 5.33.483"/><path fill="#fefefc" fill-opacity=".643" d="M364.784 225.808c-1.169 2.366-1.625 3.025-.091 5.407l-1.808 1.656c-1.058.967-2.143 1.795-3.516 2.265-4.586 1.57-5.563 8.176-10.066 10.186-.367.164-.627.434-.948.71l-1.42 1.702-1.911-.086-.077-.448c1.465-.355 2.36-1.581 3.471-2.708 2.657-2.831 5.83-5.411 3.151-9.117 4.366-2.946 8.417-6.386 13.215-9.567"/><path fill="#fefefc" fill-opacity=".804" d="M364.693 231.215c1.286-1.233 1.674-1.677 3.239-2.621l.602.153c-1.403 1.508-6.737 9.018-6.533 8.995-5.682.642-2.844 5.115-8.479 8.299-1.797.011-3.476-.34-5.167-.009.321-.276.581-.546.948-.71 4.503-2.01 5.48-8.616 10.066-10.186 1.373-.47 2.458-1.298 3.516-2.265z"/><path fill="#fefefc" fill-opacity=".302" d="M200.837 517.167c-.004-8.564 5.974-11.012 10.088-3.246-2.104 2.412-3.112 2.902-6.443 3.112a94 94 0 0 1-3.645.134"/><path fill="#fefefc" fill-opacity=".855" d="M204.405 476.519c1.469-3.829 1.888-4.503 5.042-7.109 2.881 1.779 4.976 2.832 3.805 6.478-2.391 2.45-6.087 2.568-8.847.631"/><path fill="#fefefc" fill-opacity=".2" d="M434.289 195.492c4.899-1.423 7.982-.136 9.186 5.151-2.337.984-2.899.454-5.33-.483-.951-.087-2.076-.272-3.039-.404-1.153-1.249-.638-2.396-.817-4.264"/><path fill="#fefefc" d="M215.57 473.352c1.926 4.557 1.91 13.536.726 18.276-3.289-3.504-1.355-13.737-.726-18.276"/><path fill="#fefefc" fill-opacity=".188" d="M651.398 237.223c-.591-1.783-.779-2.011-.234-3.844 2.459-.918.786.064 2.309.165 1.822.121-.575-1.827 2.408-.611 1.139 3.103.849 4.161.096 7.432-1.633-1.015-3.016-2.019-4.579-3.142"/><path fill="#fefefc" fill-opacity=".047" d="M591.506 207.517c2.086-4.261 3.478-4.035 7.845-3.832-.974 1.997-.66.126-1.878 2.108-1.509 2.459-2.702 3.422-5.416 2.592z"/><path fill="#fefefc" fill-opacity=".482" d="M351.569 235.375c2.679 3.706-.494 6.286-3.151 9.117l-.398-2.077c-1.058-.994-.985-.631-2.988-.571l2.82-3.037c1.381 1.332 1.595 1.156 3.017.279.517-1.926.533-.995-.043-2.898z"/><path fill="#fefefc" d="M346.935 247.734c3.696-1.359 4.225-.97 8.09-.376-3.278 2.164-7.324 5.27-10.001.29z"/><path fill="#fefefc" fill-opacity=".467" d="M345.032 241.844c2.003-.06 1.93-.423 2.988.571l.398 2.077c-1.111 1.127-2.006 2.353-3.471 2.708-1.011-2.214-.763-3.237.085-5.356"/><path fill="#fefefc" fill-opacity=".988" d="M423.911 209.744c.638-4.385 5.532-4.181 8.561-2.418z"/><path fill="#fefefa" fill-opacity=".663" d="m201.21 526.389.599-1.102c1.84 1.614 1.667 4.65.748 6.726-.996-2.345-.99-3.038-1.347-5.624"/><path fill="#fefefc" fill-opacity=".435" d="M350.826 236.188c.576 1.903.56.972.043 2.898-1.422.877-1.636 1.053-3.017-.279z"/><path fill="#fada9f" d="M458.587 787.515c3.605 2.344 7.222 5.727 10.801 8.158 25.369 17.229 59.855 18.155 85.409.723 3.879-2.647 7.502-5.494 11.251-8.508 1.732 14.689 8.062 47.655 13.119 60.936-9.173 1.091-20.473 1.208-29.895 1.701-34.291 1.794-68.539.549-102.844-.23.047-4.481 10.264-57.392 12.159-62.78"/><path fill="#fefefa" d="M440.572 253.507c8.265-5.927 10.333-10.874 21.911-15.25 19.809-7.488 31.44-3.92 49.392 3.569 3.308-1.464 6.061-3.133 9.676-4.644-1.92 3.377-4.375 3.059-5.675 5.237l.205.955c.567.299.996.51 1.572.774 6.019 2.757 2.188 5.15 9.294 7.306 9.199-3.083 23.865-3.712 30.363 4.85l.317-.723 2.123-.727.4-1.039c-1.433-3.012-5.484-2.895-6.842-4.472-.906-1.676-3.718-4.66-5.41-5.58-1.561-.848-3.2 1.584-3.829 1.72-3.049.659-14.205.375-16.35 1.635-.488.448-.885.671-1.437 1.042l-.595-.491.302-1.218c2.674-2.313 4.181-.428 5.962-3.147-.905-3.142-6.135-3.612-8.027-5.538l.338-.589c4.089 1.907 15.655-2.482 21.256-1.799.948.116 1.903.268 2.848.409l-.006 1.944c1.042 1.541.347.992 2.265 1.559 1.862-.527 4.114-1.639 5.478.011-1.15 1.374-2.227 2.158-1.87 3.969 2.844-.064 4.08-2.781 6.262-4.768l.532-.477c4.539 2.147 7.948 3.818 11.958 6.899-1.83-.203-4.223-1.43-5.244-.775-1.016 5.083 9.418 9.319 13.278 10.963 1.421-.081 1.366-.18 2.609-.939 6.745 3.801 22.38-6.324 42.477 10.338l-2.511.479c.461 1.029 3.844 3.68 5.074 5.406 2.216 3.11 4.065 3.973 5.538 7.911.873-.807.38-1.598 1.027-3.196l.371.567c4.267 6.638 5.644 19.17 13.563 20.096 14.113 1.651 25.114 7.793 33.112 20 8.157 12.452 8.67 24.336 8.755 39.154 2.864 1.979 5.513 3.672 8.474 5.507 6.222 5.652 8.992 11.071 11.653 18.996l-13.703-4.574c-4.308-1.339-8.518-2.786-12.953-3.546-7.95-1.363-10.561 8.132-2.864 9.661 24.094 4.788 110.299 40.274 103.307 71.817-8.39 21.232-44.377 11.582-59.269 3.929-9.747-5.008-17.538-11.63-25.214-19.341-3.421-3.437-8.075-11.283-11.496-13.583-1.832 2.834-1.067 7.182-1.333 11.106 5.975 11.961 12.248 15.319 21.3 24.071 2.946 12.715 1.831 18.312 2.28 30.441 3.486 3.532 8.438 7.665 11.395 10.957 8.61 9.585 12.854 23.632 12.804 36.382a68.6 68.6 0 0 1-2.183 16.381c-1.898 7.389-5.573 15.32-7.155 22.036-.559 2.373 5.49 8.279 7.199 11.11 10.225 16.944 9.881 45.874 1.479 63.281-2.797 7.281-9.064 15.639-15.514 20.107-3.65 2.528-7.509 4.507-10.612 7.738-.258 7.324-.447 14.554-2.321 21.786-4.978 19.221-19.936 33.869-39.06 38.963-4.691 1.249-15.221.915-18.761 3.919-5.603 4.753-7.641 11.694-13.487 17.74-14.268 14.756-30.876 20.956-51.306 19.156-6.953-.613-11.601-2.69-18.708-2.469l-.828.029c-6.126 3.29-11.633 9.28-18.278 13.346-21.919 13.409-54.601 10.706-74.377-5.392-12.868-10.474-10.84-6.822-25.332-4.45a65.7 65.7 0 0 1-13.072.745c-24.754-1.145-43.489-15.33-54.949-35.929-2.907-4.864-10.724-4.347-15.649-5.43-21.572-4.744-40.298-22.23-45.075-44.017-1.339-6.11-.991-11.436-.682-17.558-6.788-6.703-12.621-7.965-19.795-17.416-10.592-13.954-15.342-27.426-13.439-44.95-.021-17.974 8.117-26.751 16.103-40.704-1.56-3.691-3.916-6.943-5.489-10.279-2.979-6.317-4.636-14.769-4.918-21.677a60.8 60.8 0 0 1 14.011-41.548c3.042-3.712 6.038-6.322 9.23-9.799.263-4.189-.058-8.592.273-12.954.887-11.698 5.17-22.74 13.797-30.895 3.679-3.478 7.329-3.864 10.435-8.099.626-2.325-.628-4.642-1.505-6.971-.849-.523-2.454-1.867-3.507-1.175-21.98 14.419-53.196 40.36-81.181 32.216-6.017-2.8-10.317-6.091-10.465-13.294-.412-19.611 22.214-31.777 37.088-39.918 18.694-10.231 38.369-19.1 57.357-28.835 6.847-3.51 16.939-7.979 4.691-14.331-10.372 5.075-18.997 10.067-30.02 14.836q.261-2.166.593-4.321c2.833-18.044 11.099-18.165 22.657-26.759l.503-.382c-.467-3.446-.932-7.6-.784-11.076.898-21.069 12.846-37.427 33.447-43.034 1.461-.578 10.658-.765 11.222-1.836 5.608-10.651 7.89-19.593 17.351-28.334 14.103-13.029 28.08-13.306 46.173-12.801M314.984 377.595c1.493-1.05 5.493-3.397 6.03-4.592-1.88-1.281-3.715-.768-5.912-1.29-1.708 1.023-3.888 4.362-3.924 6.299 1.31.508 2.24.138 3.806-.417"/><path fill="#fada9f" d="M283.51 615.477c1.531 2.339 2.106 4.62 3.143 7.2 5.5 13.679 12.978 26.99 24.699 36.295 3.333 2.646 6.886 5.17 10.031 7.787 4.303 18.117 16.111 36.195 31.953 46.024a59.3 59.3 0 0 0 18.03 7.468c4.413 1.038 10.836 1.971 14.652 4.01 3.59 2.263 7.397 6.941 9.989 10.206 9.764 12.488 24.125 20.795 39.64 23.653 7.377 1.359 18.897 1.209 26.193-.534 12.081-2.886 15.509 2.204 24.666 8.967 12.265 9.059 30.123 10.879 44.733 7.637 6.092-1.359 13.94-4.87 18.867-8.766 3.527-2.789 7.665-7.871 12-9.193 5.232-1.595 13.282.164 18.85.234 5.648.071 12.071-.021 17.437-1.529 12.64-3.551 23.218-8.869 32.199-18.57 2.59-2.797 7.738-8.025 10.987-9.917 3.399-1.979 10.407-3.092 14.456-4.093 14.553-3.598 25.79-11.103 33.679-23.892 6.191-10.036 5.111-16.269 7.123-26.9l.542-.607c16.87-18.713 27.15-18.802 31.054-46.424.77 3.794 4.562 23.238 6.322 25.026-2.797 7.281-9.064 15.639-15.514 20.107-3.65 2.528-7.509 4.507-10.612 7.738-.258 7.324-.447 14.554-2.321 21.786-4.978 19.221-19.936 33.869-39.06 38.963-4.691 1.249-15.221.915-18.761 3.919-5.603 4.753-7.641 11.694-13.487 17.74-14.268 14.756-30.876 20.956-51.306 19.156-6.953-.613-11.601-2.69-18.708-2.469l-.828.029c-6.126 3.29-11.633 9.28-18.278 13.346-21.919 13.409-54.601 10.706-74.377-5.392-12.868-10.474-10.84-6.822-25.332-4.45a65.7 65.7 0 0 1-13.072.745c-24.754-1.145-43.489-15.33-54.949-35.929-2.907-4.864-10.724-4.347-15.649-5.43-21.572-4.744-40.298-22.23-45.075-44.017-1.339-6.11-.991-11.436-.682-17.558-6.788-6.703-12.621-7.965-19.795-17.416-10.592-13.954-15.342-27.426-13.439-44.95"/><path fill="#f1c58c" d="M688.283 413.768c22.897 9.358 44.701 20.523 65.03 34.641 4.306 2.99 8.455.437 9.304-4.72 5.749 2.55 16.624 8.404 22.331 9.1-8.39 21.232-44.377 11.582-59.269 3.929-9.747-5.008-17.538-11.63-25.214-19.341-3.421-3.437-8.075-11.283-11.496-13.583.54-.714-.53-8.589-.686-10.026"/><path fill="#f1c58c" d="M337.461 411.724c-2.283 6.301-1.953 14.1-2.014 20.827-.849-.523-2.454-1.867-3.507-1.175-21.98 14.419-53.196 40.36-81.181 32.216 3.24-2.016 11.551-9.12 14.357-11.864 4.751-.935 17.337-8.717 22.258-11.543l30.441-17.25c5.86-3.373 13.823-8.389 19.646-11.211"/><path fill="#312059" d="M265.116 451.728c-10.405-3.337-2.523-9.228 2.845-12.558 20.695-12.837 42.581-23.777 63.464-36.36 1.215-.732 2.233-.685 3.553-.42 3.54 2.103 4.214 5.735 2.483 9.334-5.823 2.822-13.786 7.838-19.646 11.211l-30.441 17.25c-4.921 2.826-17.507 10.608-22.258 11.543"/><path fill="#312059" d="M688.283 413.768c-3.284-2.419-3.892-6.368-1.657-9.716 3.135-1.766 6.489.186 9.59 1.451 20.998 8.562 40.523 19.078 59.375 31.664 2.633 1.759 5.714 3.525 7.026 6.522-.849 5.157-4.998 7.71-9.304 4.72-20.329-14.118-42.133-25.283-65.03-34.641"/><path fill="#fada9f" d="M526.947 251.454c9.199-3.083 23.865-3.712 30.363 4.85 2.022 12.368-8.552 6.286-14.147 4.642-4.177-1.227-11.065 1.304-15.139.729-6.007-.847-7.033-7.263-1.077-10.221"/><path fill="#fefefc" d="M699.508 360.435c6.222 5.652 8.992 11.071 11.653 18.996l-13.703-4.574c.538-2.098-.044-1.419 1.347-2.458 1.404-.063 2.356.055 3.522-.695 2.716-6.731-4.269-7.156-5.095-10.803z"/><path fill="#312059" d="M388.949 379.013c.172-1.972.097-4.948 2.008-5.967 5.691-3.035 12.612-.052 19.009-1.004 6.032-.602 11.829-3.412 17.27-5.958 3.334-1.559 7.626-3.942 10.417-6.355 4.962-4.29 8.436-11.899 16.257-9.83 5.604 1.483 10.183 4.744 15.491 6.967 9.657 3.996 21.104 3.946 30.964.72 3.735-1.222 7.616-3.046 11.33-3.853l.686.174c14.393 3.724 23.093 9.878 39.29 4.439 5.237-1.759 16.106-9.494 22.422-8.435 10.609 7.447 15.888 17.83 31.266 20.652 3.771.692 8.719 1.404 12.696.99 4.989-.52 17.657-6.779 21.889-3.165 1.331 3.064-.29 7.061-1.174 10.435 8.444 15.106 11.903 36.428 11.559 53.505 14.541 18.985 26.898 38.937 23.603 64.264a63.9 63.9 0 0 1-4.225 15.537c1.675 5.16-3.889 15.635-6.122 20.216-11.159 22.892-38.689 39.686-62.058 47.189-22.02 7.069-45.738 8.75-68.757 7.964-7.421-.254-16.344-.139-23.746-.899-2.701 6.241-3.259 9.711-4.497 16.232 2.723 8.061 2.369 12.117-.244 20.104 7.175 24.677-56.184 59.434-68.976 49.995-3.626-1.025-4.517-1.307-5.842-4.902-.689-7.862-4.333-4.395.87-14.16 18.471-7.575 24.069-10.738 38.931-24.183-3.243-9.164-7.73-19.316-14.363-26.564-11.925 4.153-22.208 8.835-32.98 15.44-3.721 2.281-14.513 13.258-18.08 6.056-3.168-6.399 10.721-12.863 14.648-15.612 7.097-4.358 15.58-8.936 23.4-12.256a243 243 0 0 1 22.664-8.077c-.169-.232-1.021-1.254-1.235-1.284-7.105-1.002-23.432-.86-29.646-2.061-23.697-4.577-49.288-12.882-64.155-32.943-4.964-6.907-8.501-16.092-7.099-24.511-20-33.407-13.223-67.515 12.177-95.864.406-11.79 3.321-47.668 14.352-52.996"/><path fill="#fada9f" d="M388.949 379.013c.172-1.972.097-4.948 2.008-5.967 5.691-3.035 12.612-.052 19.009-1.004 6.032-.602 11.829-3.412 17.27-5.958 3.334-1.559 7.626-3.942 10.417-6.355 4.962-4.29 8.436-11.899 16.257-9.83 5.604 1.483 10.183 4.744 15.491 6.967 9.657 3.996 21.104 3.946 30.964.72 3.735-1.222 7.616-3.046 11.33-3.853l.686.174c14.393 3.724 23.093 9.878 39.29 4.439 5.237-1.759 16.106-9.494 22.422-8.435 10.609 7.447 15.888 17.83 31.266 20.652 3.771.692 8.719 1.404 12.696.99 4.989-.52 17.657-6.779 21.889-3.165 1.331 3.064-.29 7.061-1.174 10.435-.673-.551-1.388-1.093-2.075-1.631-3.493-.528-11.058 5.018-16.648 5.704-12.779 1.614-28.211-4.107-37.309-13.039-7.29-7.158-7.191-17.742-18.247-6.712-10.67 10.645-28.75 12.107-41.915 5.611-3.334-1.645-6.925-4.329-10.343-6.269-16.459 10.461-30.909 13.66-49.315 3.778-3.422-2.119-6.389-4.927-10.001-6.708-4.235-2.088-7.191 4.454-9.569 7.552-10.014 13.046-28.764 20.11-44.813 15.903-2.656-.696-6.645-2.937-9.586-3.999"/><path fill="#fada9f" d="M506.925 572.371c8.42.316 16.983.079 25.351.145 26.006.204 54.045-1.273 78.753-10.431 27.36-10.14 45.958-23.349 58.678-49.956 1.675 5.16-3.889 15.635-6.122 20.216-11.159 22.892-38.689 39.686-62.058 47.189-22.02 7.069-45.738 8.75-68.757 7.964-7.421-.254-16.344-.139-23.746-.899-2.701 6.241-3.259 9.711-4.497 16.232-1.433-2.498-2.935-5.004-4.398-7.487q3.487-11.46 6.796-22.973"/><path fill="#fada9f" d="M362.42 527.873c19.417 27.347 47.304 38.228 79.872 42.396 12.221 1.564 24.126 1.507 36.419 1.953-1.421 5.102-2.684 9.361-3.566 14.598-3.681.558-6.949 1.091-10.59 1.852-.169-.232-1.021-1.254-1.235-1.284-7.105-1.002-23.432-.86-29.646-2.061-23.697-4.577-49.288-12.882-64.155-32.943-4.964-6.907-8.501-16.092-7.099-24.511"/><path fill="#fada9f" d="M469.266 629.685a309 309 0 0 0 5.211 12.443c-9.669 6.647-18.234 12.264-29.138 16.996-6.043 2.622-14.812 1.885-15.874 8.904-.689-7.862-4.333-4.395.87-14.16 18.471-7.575 24.069-10.738 38.931-24.183"/><path fill="#fada9f" d="m435.307 672.93.833-.172c25.027-4.998 56.882-26.759 68.143-49.823 7.175 24.677-56.184 59.434-68.976 49.995"/><path fill="#fada9f" d="M570.065 372.072c19.107 17.752 37.228 27.556 63.496 17.921 1.274 3.508 2.318 7.428 3.357 11.04 2.225 11.297 4.013 22.57 2.152 34.083 1.997 2.754 4.157 5.446 6.372 8.028 12.822 14.946 20.569 34.432 17.516 54.361a34.7 34.7 0 0 1-2.77 9.32c-7.66 20.445-23.661 32.925-43 41.833-32.383 14.918-71.922 14.023-107.132 13.456 1.457-5.442 3.29-10.798 5.047-16.153 1.709-5.781 3.29-10.253 5.401-15.891-4.838-6.959-5.357-5.042-12.703-3.538-2.754.563-13.189-3.535-15.22-.383-3.135 4.864-4.914 14.645-6.748 20.329-1.296 5.069-2.95 10.556-4.379 15.62a1618 1618 0 0 1-31.042-1.753c-35.13-2.321-73.155-15.524-86.357-51.426-3.468-9.433-3.31-17.946-2.342-27.741 3.077-21.142 9.96-29.504 23.086-44.843-.584-12.17 1.006-23.271 3.729-35.033.805-2.238 1.899-6.809 2.567-9.265 26.845 6.512 43.012 1.006 61.907-19.071 20.297 11.688 38.514 13.485 59.269 1.944 21.22 10.754 38.065 11.921 57.794-2.838"/><path fill="#f1c58c" d="M570.065 372.072c19.107 17.752 37.228 27.556 63.496 17.921 1.274 3.508 2.318 7.428 3.357 11.04-3.402 1.349-8.262 3.885-11.559 4.65-20.506 4.764-38.064-3.654-53.787-15.64-20.642 9.577-38.296 10.34-58.589-.29-21.428 8.886-37.18 11.688-58.554-.26-6.17 4.408-11.179 8.839-17.98 12.421-15.04 7.924-33.152 8.005-47.921-.612.805-2.238 1.899-6.809 2.567-9.265 26.845 6.512 43.012 1.006 61.907-19.071 20.297 11.688 38.514 13.485 59.269 1.944 21.22 10.754 38.065 11.921 57.794-2.838"/><path fill="#f1c58c" d="M515.103 545.961c4.268 1.373 17.728.353 22.759.323 37.714-.225 78.993-4.164 109.421-28.786 3.221-2.606 9.449-9.274 12.905-10.673-7.66 20.445-23.661 32.925-43 41.833-32.383 14.918-71.922 14.023-107.132 13.456 1.457-5.442 3.29-10.798 5.047-16.153"/><path fill="#f1c58c" d="M481.454 562.098a1618 1618 0 0 1-31.042-1.753c-35.13-2.321-73.155-15.524-86.357-51.426-3.468-9.433-3.31-17.946-2.342-27.741 2.233 3.013 4.616 15.108 7.007 20.109 10.81 22.601 36.667 36.068 60.467 40.541 16.93 3.182 39.147 4.881 56.646 4.65-1.296 5.069-2.95 10.556-4.379 15.62"/><path fill="#312059" d="M500.754 478.441c4.336-.233 5.673.864 9.616 2.707 4.438-.437 6.73-1.26 10.872-2.534 1.441-.346 3.867 1.21 4.723 2.219 4.605 5.432-7.465 8.788-10.311 10.735-1.433 4.157 1.543 8.676 5.105 11.01 9.63 6.31 15.721-6.898 20.727-7.326 8.666-.74 7.277 8.053.905 12.751-7.314 5.392-9.963 6.849-19.025 6.335-5.468-1.337-8.66-3.091-12.77-6.842-9.764 7.273-18.982 8.729-29.418 1.329-9.826-6.966-6.44-20.499 5.018-9.419 5.297 5.122 11.601 5.487 17.406.161l.45-.42c1.254-3.406 1.389-4.34 1.897-7.942-5.653-2.623-10.954-6.951-5.195-12.764"/><path fill="#fbaa88" d="M608.148 481.204c6.882-.423 16.631.51 22.405 4.731 3.993 2.92 5.01 8.012 1.355 11.776-5.46 5.622-13.303 6.262-20.701 6.631-31.903-.582-38.434-20.508-3.059-23.138"/><path fill="#fbaa88" d="M409.331 482.203c27.281-3.018 45.029 16.536 11.283 21.722-8.065.504-18.029.376-24.842-4.031-8.574-5.545-5.75-12.07 2.702-15.183 4.325-1.593 6.319-2.012 10.857-2.508"/><path fill="#312059" d="M412.903 446.45c6.278-.503 11.022 8.215 17.605 11.021 9.068 3.865 19.149 2.894 27.417-2.547 3.814-2.51 14.222-15.359 16.594-4.263.516 2.704-.791 4.348-2.442 6.426q-.418.44-.847.865c-16.532 16.326-41.283 16.746-57.833.287-3.733-3.712-5.339-8.18-.494-11.789"/><path fill="#312059" d="M550.466 445.964c5.503-.214 8.054 4.888 13.233 8.19 10.562 7.247 22.59 6.984 33.072-.256 2.491-1.721 10.611-7.938 13.932-4.716 3.56 3.455.694 6.344-1.948 8.923-18.11 14.933-39.262 16.232-57.865.115-4.375-3.791-5.38-8.362-.424-12.256"/><path fill="#9f80c3" d="M472.096 597.615c9.129-.887 22.069-.185 23.645 11.378 1.138 8.353-3.465 14.19-8.164 20.421l-3.93 5.094c-2.607-5.441-4.823-11.378-7.45-16.865-3.009-6.283-6.341-12.438-9.625-18.584 1.788-.512 3.713-.974 5.524-1.444"/><path fill="#9f80c3" d="m499.268 536.381 6.834.157c-4.451 16.989-9.674 34.958-14.541 51.856-1.192-.008-4.543-.853-5.887-1.15 2.767-14.341 9.521-36.229 13.594-50.863"/><path fill="#fada9f" d="M699.231 612.348c4.509-.135 8.334 1.83 7.29 7.088-3.201 16.123-12.377 30.221-25.019 40.562-1.601.208-3.614-.059-4.868-1.119-5.347-4.518 3.605-10.416 6.38-13.32 5.941-6.217 9.398-14.136 12.197-22.124 1.175-3.354 1.876-8.539 4.02-11.087"/><path fill="#fada9f" d="M639.523 692.347c8.5 1.167 4.482 8.866 1.727 13.453-7.681 12.793-18.317 22.263-32.897 26.072-2.169-.304-3.025-1.037-4.501-2.489-1.782-6.177 9.594-9.185 13.685-12.135 3.773-2.721 6.76-4.663 10.15-7.994 4.701-4.621 6.646-13.498 11.836-16.907"/><path fill="#fada9f" d="M321.326 590.42c8.879.617 4.713 7.736 3.089 13.271-1.129 3.851-1.963 6.679-2.499 10.687-1.176 8.785 2.527 15.993 3.706 24.331.205 1.489-2.546 3.016-3.704 3.721-1.133-.093-2.152-.293-2.897-1.237-9.18-11.649-7.264-40.707 2.305-50.773"/><path fill="#fada9f" d="M347.46 667.847c6.528.209 8.426 7.625 12.821 11.87 3.062 2.957 5.041 5.252 8.653 7.713 5.262 3.586 17.391 6.395 9.837 14.151l-1.261.465c-2.873-.198-11.651-6.181-14.532-8.186-6.446-4.488-15.68-13.263-17.361-21.296-.418-1.998.677-3.308 1.843-4.717"/><path fill="#fada9f" d="M706.87 526.46q.694-.021 1.389-.021c6.513.031 5.498 9.948 5.503 14.568.008 7.612-1.462 21.598-7.182 27.106-11.046.216-3.925-10.197-3.118-15.938.975-6.937.753-13.356.751-20.301 0-3.054.564-3.564 2.657-5.414"/><path fill="#fada9f" d="M642.823 311.506c10.62-.417 22.708 15.895 20.194 26.077-.451 1.823-2.712 2.94-4.281 3.59-5.679-2.341-7.417-15.239-11.634-16.42-6.113-1.712-16.163-8.959-4.279-13.247"/><path fill="#fada9f" d="M428.496 733.635c7.073-.749 10.198 1.875 16.548 2.757 3.977.551 28.271-1.83 17.593 8.791-6.189 1.373-30.74 2.697-35.573-6.172-.542-.993.511-4.279 1.432-5.376"/><path fill="#fada9f" d="M536.994 748.185c2.97.472 5.086 2.027 5.388 5.183-1.904 7.231-25.991 7.564-32.245 7.049-5.611-1.26-7.593-2.968-4.172-8.488 3.275-1.867 8.58-.417 12.483-.526 6.438-.179 12.155-2.19 18.546-3.218"/><path fill="#fada9f" d="M598.636 274.017c9.779-.721 33.706 10.331 21.967 19.962-8.073.715-7.133-4.116-12.355-7.216-5.093-3.023-18.054-3.339-9.612-12.746"/><path fill="#fefefa" fill-opacity=".69" d="M315.102 371.713c2.197.522 4.032.009 5.912 1.29-.537 1.195-4.537 3.542-6.03 4.592-1.566.555-2.496.925-3.806.417.036-1.937 2.216-5.276 3.924-6.299"/><path fill="#fada9f" d="M576.126 788.311c22.474 2.624 41.429.304 59.767-14.246 9.263-7.35 12.345-13.72 17.306-24.151-.387 10-5.306 24.626-8.365 34.307a311 311 0 0 1-8.858 21.274c-16.235 6.372-36.607 12.588-54.228 10.635a577 577 0 0 1-3.887-20.072c-.492-2.555-1.148-5.202-1.735-7.747"/><path fill="#f1c58c" d="M576.126 788.311c22.474 2.624 41.429.304 59.767-14.246 9.263-7.35 12.345-13.72 17.306-24.151-.387 10-5.306 24.626-8.365 34.307-6.436.202-7.861 2.874-13.382 5.62-18.991 9.448-33.439 11.076-53.591 6.217-.492-2.555-1.148-5.202-1.735-7.747"/><path fill="#fada9f" d="M369.819 750.583c1.696 2.23 3.516 4.7 4.984 7.067 16.637 26.84 41.922 35.753 72.357 32.307l-2.387 11.613c-1.076 4.284-2.03 9.316-3.018 13.687-19.563 2.741-36.66-1.199-54.14-10.112-2.742-6.141-7.952-21.611-10.019-28.211-2.476-7.413-6.715-19.073-7.777-26.351"/><defs><linearGradient id="b" x1="410.735" x2="403.327" y1="762.257" y2="795.448" gradientUnits="userSpaceOnUse"><stop offset="0" stop-color="#ffdf94"/><stop offset="1" stop-color="#ecbe8c"/></linearGradient></defs><path fill="url(#b)" d="M369.819 750.583c1.696 2.23 3.516 4.7 4.984 7.067 16.637 26.84 41.922 35.753 72.357 32.307l-2.387 11.613c-19.131-.169-31.31-.335-48.746-10.674-5.167-3.064-15.169-13.437-18.431-13.962-2.476-7.413-6.715-19.073-7.777-26.351"/><path fill="#9f80c3" d="M751.79 616.175c18.892 5.99 13.84 33.947 7.658 47.717-5.855 13.043-16.389 20.427-29.443 25.29-4.482 1.187-6.888 1.678-11.467 2.114.445-3.002.756-5.68 1.054-8.698 24.615-18.551 31.535-36.214 32.198-66.423"/><path fill="#9f80c3" d="M394.661 819.323c18.872 7.408 25.395 8.224 45.166 6.967l-2.913 15.633c-.116.971-.224.944-.648 1.878-5.18 2.432-24.054-2.068-29.682-3.877-3.131-6.692-8.297-12.314-11.923-20.601"/><path fill="#9f80c3" d="M629.961 818.552c-.486 2.614-8.868 16.887-11.277 18.758-5.149 4-20.324 6.553-27.131 5.917-2.572-.24-2.632-.485-3.952-2.127-1.311-5.006-2.424-8.831-4.062-13.765 17.361-.3 30.298-1.956 46.422-8.783"/><path fill="#fefefa" fill-opacity=".914" d="M521.551 237.182c13.869-5.068 25.745-4.165 39.476.843l-.532.477c-2.182 1.987-3.418 4.704-6.262 4.768-.357-1.811.72-2.595 1.87-3.969-1.364-1.65-3.616-.538-5.478-.011-1.918-.567-1.223-.018-2.265-1.559l.006-1.944c-.945-.141-1.9-.293-2.848-.409-5.601-.683-17.167 3.706-21.256 1.799l-.338.589c1.892 1.926 7.122 2.396 8.027 5.538-1.781 2.719-3.288.834-5.962 3.147l-.302 1.218.595.491c.552-.371.949-.594 1.437-1.042 10.533.107 14.843-.455 25.589 2.225 1.358 1.577 5.409 1.46 6.842 4.472l-.4 1.039-2.123.727-.317.723c-6.498-8.562-21.164-7.933-30.363-4.85-7.106-2.156-3.275-4.549-9.294-7.306a29 29 0 0 1-1.572-.774l-.205-.955c1.3-2.178 3.755-1.86 5.675-5.237"/><path fill="#fefefa" fill-opacity=".675" d="M583.628 254.173c-1.243.759-1.188.858-2.609.939-3.86-1.644-14.294-5.88-13.278-10.963 1.021-.655 3.414.572 5.244.775 3.421 2.305 7.507 6.336 10.643 9.249"/><path fill="#fefefc" fill-opacity=".694" d="M527.719 247.118c2.145-1.26 13.301-.976 16.35-1.635.629-.136 2.268-2.568 3.829-1.72 1.692.92 4.504 3.904 5.41 5.58-10.746-2.68-15.056-2.118-25.589-2.225"/><path fill="#fefefa" fill-opacity=".988" d="M626.105 264.511c2.886 2.636 7.47 6.953 9.128 10.6-.647 1.598-.154 2.389-1.027 3.196-1.473-3.938-3.322-4.801-5.538-7.911-1.23-1.726-4.613-4.377-5.074-5.406z"/><path fill="#9f80c3" d="M370.115 840.946c-6.612-3.172-14.459-6.38-20.724-9.681-17.118-9.017-35.782-19.761-51.669-30.8a361.9 361.9 0 0 1-132.99-177.135 356.6 356.6 0 0 1 15.341-269.158c3.526-7.337 22.35-44.797 28.372-46.977.85-.308 1.6-.382 2.485-.065 1.279.458 1.931 1.543 2.566 2.637.195 1.969-10.66 19.575-12.437 22.815a499 499 0 0 0-17.708 34.898c-43.255 98.008-38.783 210.506 12.116 304.771 6.576 12.126 14 24.71 22.138 35.847l3.659 5.247c.738.99 3.013 4.246 3.811 4.803.317.422 1.637 2.239 1.922 2.494 1.136 1.574 2.219 3.18 3.545 4.594 13.297 17.271 29.357 33.09 45.7 47.439 4.092 3.593 10.739 9.763 15.15 12.834 1.59 1.527 1.969 1.743 3.875 2.915.886.679 1.597 1.249 2.545 1.841 1.677 1.216 4.399 2.816 5.72 3.955 1.375.886 2.749 1.821 4.184 2.592 1.386 1.051 2.088 1.657 3.68 2.426.741.533.787.734 1.568.881.826.603 9.56 6.237 9.138 5.629 3.114 2.042 20.84 11.544 21.686 12.364 1.729 1.665 5.033 2.694 7.384 3.598 3.394 3.095 5.595 1.562 7.5 2.872 1.989 1.366 1.136 1.872 4.969 3.224 3.985 1.323 7.147 3.138 11.032 4.493 2.047 1.038 5.114 2.909 7.245 2.933 2.933.662 6.908 1.612 9.839 1.673 7.282 11.271 9.972 13.54 23.769 16.309 6.611 1.326 28.338 5.509 30.902-2.919 34.305.779 68.553 2.024 102.844.23 9.422-.493 20.722-.61 29.895-1.701 11.494 9.562 30.348 3.63 42.807-.686 5.926-2.052 7.746-6.997 10.696-12.05.55 2.077.129 1.883 1.481 2.794 3.869-.322 7.093-1.916 10.836-3.214 5.187-1.425 19.368-7.862 24.325-10.356l5.128-2.452c45.274-21.889 82.196-52.056 114.446-90.33a344.56 344.56 0 0 0 80.298-255.056l-.715-3.973c-.263-2.843-.646-10.211-1.264-12.386-4.042-47.778-24.838-97.736-48.325-138.939 1.662-1.349 4.215-3.128 5.988-4.439 12.618 19.126 22.291 39.412 30.379 60.84a370.74 370.74 0 0 1 15.88 207.393c-4.246 20.724-13.432 46.382-22.105 65.645a366 366 0 0 1-108.098 139.133c-8.567 6.665-19.527 13.963-28.576 19.91a294 294 0 0 1-35.944 20.251c-6.285 3.051-15.411 6.873-21.178 10.11l.674.139c6.118 1.217 16.988-.065 20.198 3.802.659 4.037-3.099 5.307-6.414 5.324-14.646.074-29.229 1.251-43.868 1.473-12.846.195-24.585 5.574-36.986 8.52a360.3 360.3 0 0 1-75.044 9.627c-24.319.473-57.414-2.797-81.459-7.238-11.381-2.102-22.512-5.101-33.96-6.981-5.759-.947-41.337-6.025-44.856-8.839-1.122-.897-1.202-1.193-1.472-2.523 2.523-5.189 13.18-3.628 18.076-3.377"/><defs><linearGradient id="c" x1="759.87" x2="815.359" y1="655.299" y2="695.621" gradientUnits="userSpaceOnUse"><stop offset="0" stop-color="#fdfdfa" stop-opacity=".824"/><stop offset="1" stop-color="#fffffb"/></linearGradient></defs><path fill="url(#c)" d="M869.184 477.474a344.56 344.56 0 0 1-80.298 255.056c-32.25 38.274-69.172 68.441-114.446 90.33-.132-2.454-2.209-6.147-3.733-8.068 1.266-2.615 3.063-3.436 5.701-4.726l.644-.308-.017-.984c2.27-1.693 6.933-3.744 9.664-5.29 87.685-49.652 150.19-132.259 167.906-232.178 4.517-25.475 5.192-46.334 5.448-71.403 1.162 6.147-.297 12.626 1.162 19.908.959-.524 1.129-.376 1.781-.622 1.885-.711.908-7.794 1.188-9.598 1.416-9.133 1.605-18.514 4.142-27.434.544-1.911.687-2.714.858-4.683"/><path fill="#fefefc" fill-opacity=".012" d="M241.719 722.42c17.189 20.171 31.562 35.083 52.227 51.398-12.531 3.149-2.709 6.515-2.554 11.691-4.411-3.071-11.058-9.241-15.15-12.834-16.343-14.349-32.403-30.168-45.7-47.439 2.227.175 1.67-.166 3.335.95 1.375 2.221 5.183 6.449 7.456 7.698l.322-.383c-1.261-1.282-2.818-2.538-3.222-4.207l.575-.8.637-.064c1.24 1.749 1.803 4.064 4.173 4.578-1.035-4.749-4.098-5.702-2.099-10.588"/><path fill="#fefefa" fill-opacity=".757" d="M641.616 824.204c3.706-.888 11.842-4.352 15.43-6.037 1.454 3.363.967 4.829 4.265 6.872 3.147-.076 2.603-3.21 5.101-3.947 1.658.525 1.605.651 2.697 1.945.065.685.173 1.581.203 2.275-4.957 2.494-19.138 8.931-24.325 10.356l-.36-.308c.261-1.78.526-1.657-.053-3.126-2.906-1.861-5.429-2.536-7.909.048-.924 1.644-.939 2.496-3.012 2.646.931-1.966 2.712-5.341 4.024-6.993 1.673-.848 2.703-2.299 3.939-3.731"/><path fill="#fefefc" fill-opacity=".569" d="M858.655 478.229c1.409-4.005-.383-6.084.25-8.854l.646-.258c1.441 3.018 1.946 10.848 3.967 11.932 3.114-1.372 3.593-4.533 4.951-7.548l.715 3.973c-.171 1.969-.314 2.772-.858 4.683-2.537 8.92-2.726 18.301-4.142 27.434-.28 1.804.697 8.887-1.188 9.598-.652.246-.822.098-1.781.622-1.459-7.282 0-13.761-1.162-19.908-.054-5.039-1.844-17.737-1.398-21.674"/><path fill="#fefefc" fill-opacity=".596" d="M321.537 793.916a470 470 0 0 0 15.425 9.404c-.464 1.625-.673 1.896-1.662 3.174.343 1.895-.149 1.292 1.072 2.212 2.828-.184 3.437-.829 5.157-2.86l3.059 1.849c-.636 1.646-.91 1.704-2.282 2.671-.709 2.43.757 3.088 2.514 4.774l.3 1.327c-.667 1.046-.43.867-1.332 1.645-.846-.82-18.572-10.322-21.686-12.364 2.453.851 4.761 1.089 7.233 1.764-1.426-4.707-10.588-8.897-15.474-8.573l-.897 1.18c-.781-.147-.827-.348-1.568-.881l-.08-.643c-.977-1.118-.78-.715-1.356-2.021 2.062-.759 4.063.581 6.362.502 2.857-.097 3.144-1.642 5.215-3.16"/><path fill="#fefefa" fill-opacity=".2" d="M865.827 456.514c.16 1.759.355 3.302.601 5.051l.483.261.294-.711c.618 2.175 1.001 9.543 1.264 12.386-1.358 3.015-1.837 6.176-4.951 7.548-2.021-1.084-2.526-8.914-3.967-11.932l-.646.258c-.633 2.77 1.159 4.849-.25 8.854l-1.398-11.331c.292-.569.892-2.837 1.248-3.163 4.192-3.837 4.992-1.413 7.322-7.221"/><path fill="#fefefa" fill-opacity=".58" d="M357 813.772a695 695 0 0 0 12.134 5.404c-1.522 2.647-2.596 1.369-5.006 3.636l-.206.918c.965 1.166.939 1.055 2.409 1.51 6.027-.927 4.163-3.006 7.417-4.282l.846.651c-4.69 7.715-6.318 2.09-10.953 6.197-3.833-1.352-2.98-1.858-4.969-3.224-1.905-1.31-4.106.223-7.5-2.872l.343-.961-1.182-1.533c-1.267-.442-1.267-.366-2.252-1.245l.325-.985c3.243-1.88 2.839.837 6.212-.356.875-1.664.789-1.71 2.382-2.858"/><path fill="#fefefc" fill-opacity=".055" d="M225.415 700.739a464 464 0 0 0 16.304 21.681c-1.999 4.886 1.064 5.839 2.099 10.588-2.37-.514-2.933-2.829-4.173-4.578-.04-1.426.023-2.453-.409-3.821l-2.861-.975c-.904-2.114-.652-4.364-1.905-5.87-2.979-.211-2.649 1.653-6.556 1.557 1.84-2.187 4.368-3.429 4.952-5.74-1.102-1.974-4.177-2.69-5.897-4.568-.745-.813-3.394-.083-4.832.14l-.061-2.263.556-.516c.372-.049.778-.019 1.109-.197-.193-2.169-.46-2.38-1.631-4.342l-.343-.564c.946-.872 1.92-.517 3.648-.532"/><path fill="#fefefa" fill-opacity=".655" d="m677.035 808.774.017.984-.644.308c-2.638 1.29-4.435 2.111-5.701 4.726 1.524 1.921 3.601 5.614 3.733 8.068l-5.128 2.452c-.03-.694-.138-1.59-.203-2.275-1.092-1.294-1.039-1.42-2.697-1.945-2.498.737-1.954 3.871-5.101 3.947-3.298-2.043-2.811-3.509-4.265-6.872l.424-.226c2.629.772 2.797 3.169 6.167 2.878l.534-.738c-.045-1.375.056-3.65-.299-4.802 2.184-1.477 10.399-5.193 13.163-6.505"/><defs><linearGradient id="d" x1="351.638" x2="347.416" y1="811.34" y2="817.91" gradientUnits="userSpaceOnUse"><stop offset="0" stop-color="#fafaf8" stop-opacity=".502"/><stop offset="1" stop-color="#fefefb" stop-opacity=".58"/></linearGradient></defs><path fill="url(#d)" d="m344.588 807.695 1.362.504c-1.179 2.183-1.586 2.156-1.387 4.324 1.595.005.817.088 2.407-.824.827-1.629.22-.968 2.108-1.821 2.437 1.271 5.736 2.679 7.922 3.894-1.593 1.148-1.507 1.194-2.382 2.858-3.373 1.193-2.969-1.524-6.212.356l-.325.985c.985.879.985.803 2.252 1.245l1.182 1.533-.343.961c-2.351-.904-5.655-1.933-7.384-3.598.902-.778.665-.599 1.332-1.645l-.3-1.327c-1.757-1.686-3.223-2.344-2.514-4.774 1.372-.967 1.646-1.025 2.282-2.671"/><path fill="#fefefc" fill-opacity=".302" d="M306.146 783.023c4.052 2.749 7.461 5.16 11.373 8.135-1.3.081-8.495 2.341-9.673 2.845l-.587.766c.134.659.254 1.418.457 2.043-1.435-.771-2.809-1.706-4.184-2.592 1.759-.887 2.55-1.078 2.319-3.022-5.155-5.424-1.355-4.004.295-8.175"/><path fill="#fefefa" fill-opacity=".129" d="M293.946 773.818c2.369 1.777 4.728 3.502 6.999 5.405-3.586.021-4.064 2.269-7.846 4.682l2.168 4.519c-1.906-1.172-2.285-1.388-3.875-2.915-.155-5.176-9.977-8.542 2.554-11.691"/><path fill="#fefefa" fill-opacity=".765" d="M375 821.666c2.387 1.102 8.255 3.618 9.977 5.346l.214.653c-2.164 2.692-1.977 4.307-3.273 7.567-2.131-.024-5.198-1.895-7.245-2.933l.341-.233c2.318-6.427-.53-4.784-.014-10.4"/><path fill="#fefefc" fill-opacity=".259" d="M222.137 709.153c1.438-.223 4.087-.953 4.832-.14 1.72 1.878 4.795 2.594 5.897 4.568-.584 2.311-3.112 3.553-4.952 5.74-.982-.913-1.509-.873-2.839-1.173-.798-.557-3.073-3.813-3.811-4.803.734-1.285.782-1.162 1.866-2.242l-.597-1.016z"/><path fill="#fefefa" fill-opacity=".129" d="M227.914 719.321c3.907.096 3.577-1.768 6.556-1.557 1.253 1.506 1.001 3.756 1.905 5.87l2.861.975c.432 1.368.369 2.395.409 3.821l-.637.064-.575.8c.404 1.669 1.961 2.925 3.222 4.207l-.322.383c-2.273-1.249-6.081-5.477-7.456-7.698l-.119-.79c-2.576-2.669-3.54-4.436-6.761-4.754-.285-.255-1.605-2.072-1.922-2.494 1.33.3 1.857.26 2.839 1.173"/><path fill="#fefefa" fill-opacity=".369" d="m304.689 781.973 1.457 1.05c-1.65 4.171-5.45 2.751-.295 8.175.231 1.944-.56 2.135-2.319 3.022-1.321-1.139-4.043-2.739-5.72-3.955l-.909-2.31c.572-2.085 5.928-5.334 7.786-5.982"/><path fill="#fefefc" fill-opacity=".412" d="m317.519 791.158 4.018 2.758c-2.071 1.518-2.358 3.063-5.215 3.16-2.299.079-4.3-1.261-6.362-.502.576 1.306.379.903 1.356 2.021l.08.643c-1.592-.769-2.294-1.375-3.68-2.426-.203-.625-.323-1.384-.457-2.043l.587-.766c1.178-.504 8.373-2.764 9.673-2.845"/><path fill="#fefefa" fill-opacity=".624" d="m312.964 800.119.897-1.18c4.886-.324 14.048 3.866 15.474 8.573-2.472-.675-4.78-.913-7.233-1.764.422.608-8.312-5.026-9.138-5.629"/><path fill="#fefefa" fill-opacity=".655" d="m374.594 821.609.406.057c-.516 5.616 2.332 3.973.014 10.4l-.341.233c-3.885-1.355-7.047-3.17-11.032-4.493 4.635-4.107 6.263 1.518 10.953-6.197"/><path fill="#fefefa" fill-opacity=".263" d="m300.945 779.223 3.744 2.75c-1.858.648-7.214 3.897-7.786 5.982l.909 2.31c-.948-.592-1.659-1.162-2.545-1.841l-2.168-4.519c3.782-2.413 4.26-4.661 7.846-4.682"/><path fill="#fefefc" fill-opacity=".102" d="M856.556 461.225c1.504-2.306 6.554-5.173 9.271-4.711-2.33 5.808-3.13 3.384-7.322 7.221-.356.326-.956 2.594-1.248 3.163a83 83 0 0 1-.701-5.673"/><path fill="#fefefc" fill-opacity=".624" d="M636.665 832.282c1.294 3.523 4.552 3.04 7.962 3.078l.36.308c-3.743 1.298-6.967 2.892-10.836 3.214-1.352-.911-.931-.717-1.481-2.794.149-.252.762-.91.983-1.16 2.073-.15 2.088-1.002 3.012-2.646"/><path fill="#fefefa" fill-opacity=".475" d="m369.134 819.176 4.614 1.782c-3.254 1.276-1.39 3.355-7.417 4.282-1.47-.455-1.444-.344-2.409-1.51l.206-.918c2.41-2.267 3.484-.989 5.006-3.636"/><path fill="#fefefc" fill-opacity=".506" d="M636.665 832.282c2.48-2.584 5.003-1.909 7.909-.048.579 1.469.314 1.346.053 3.126-3.41-.038-6.668.445-7.962-3.078"/><path fill="#fefefc" fill-opacity=".537" d="M663.872 815.279c.355 1.152.254 3.427.299 4.802l-.534.738c-3.37.291-3.538-2.106-6.167-2.878 1.865-.659 4.511-1.87 6.402-2.662"/><path fill="#fefefc" fill-opacity=".478" d="m336.962 803.32 4.567 2.526c-1.72 2.031-2.329 2.676-5.157 2.86-1.221-.92-.729-.317-1.072-2.212.989-1.278 1.198-1.549 1.662-3.174"/><path fill="#fefefa" fill-opacity=".133" d="M217.605 708.098c.575-1.252.837-2.332 2.003-2.918 2.107 2.707-.322 1.9 2.925 4.907l.597 1.016c-1.084 1.08-1.132.957-1.866 2.242z"/><path fill="#fefefa" fill-opacity=".078" d="M226.997 720.642c3.221.318 4.185 2.085 6.761 4.754l.119.79c-1.665-1.116-1.108-.775-3.335-.95-1.326-1.414-2.409-3.02-3.545-4.594"/><path fill="#fefefc" fill-opacity=".482" d="m345.95 808.199 3.128 1.679c-1.888.853-1.281.192-2.108 1.821-1.59.912-.812.829-2.407.824-.199-2.168.208-2.141 1.387-4.324"/></svg>